<svg width="26" height="26" viewBox="0 0 26 26" fill="none" xmlns="http://www.w3.org/2000/svg">
<rect width="26" height="26" rx="5" fill="#7A1CA9"/>
<path d="M19.9729 11.7859L19.9692 11.7711L17.8722 6.50264C17.7788 6.20512 17.5003 6 17.1845 6H8.68456C8.36684 6 8.08463 6.20882 7.99492 6.51003L6.0344 11.7249L6.0288 11.7379L6.02506 11.7526C6.00076 11.8432 5.99329 11.9356 6.00637 12.0261C6.0045 12.0557 6.00263 12.0853 6.00263 12.1148V18.8765C6.00313 19.1743 6.123 19.4598 6.336 19.6704C6.54899 19.881 6.83773 19.9995 7.13895 20H18.8609C19.487 20 19.9972 19.4955 19.9991 18.8765V12.1148C19.9991 12.0908 19.9991 12.0668 19.9972 12.0465C20.0047 11.9559 19.9972 11.8691 19.9729 11.7859ZM14.4446 10.9913L14.439 11.2814C14.4241 12.1111 13.8447 12.6692 12.9981 12.6692C12.585 12.6692 12.2299 12.538 11.9739 12.2885C11.7178 12.0391 11.5777 11.6917 11.5702 11.2814L11.5646 10.9913H7.71832L9.20412 7.41922H16.6649L18.1918 10.9913H14.4446ZM7.43611 12.4105H10.3759C10.8301 13.4657 11.7963 14.0884 12.9999 14.0884C13.6298 14.0884 14.2147 13.9147 14.6876 13.5858C15.1025 13.2975 15.4258 12.8947 15.6351 12.4105H18.56V18.5808H7.43611V12.4105Z" fill="white"/>
<rect width="26" height="26" rx="5" fill="#7A1CA9"/>
<path d="M19.9729 11.7859L19.9692 11.7711L17.8722 6.50264C17.7788 6.20512 17.5003 6 17.1845 6H8.68456C8.36684 6 8.08463 6.20882 7.99492 6.51003L6.0344 11.7249L6.0288 11.7379L6.02506 11.7526C6.00076 11.8432 5.99329 11.9356 6.00637 12.0261C6.0045 12.0557 6.00263 12.0853 6.00263 12.1148V18.8765C6.00313 19.1743 6.123 19.4598 6.336 19.6704C6.54899 19.881 6.83773 19.9995 7.13895 20H18.8609C19.487 20 19.9972 19.4955 19.9991 18.8765V12.1148C19.9991 12.0908 19.9991 12.0668 19.9972 12.0465C20.0047 11.9559 19.9972 11.8691 19.9729 11.7859ZM14.4446 10.9913L14.439 11.2814C14.4241 12.1111 13.8447 12.6692 12.9981 12.6692C12.585 12.6692 12.2299 12.538 11.9739 12.2885C11.7178 12.0391 11.5777 11.6917 11.5702 11.2814L11.5646 10.9913H7.71832L9.20412 7.41922H16.6649L18.1918 10.9913H14.4446ZM7.43611 12.4105H10.3759C10.8301 13.4657 11.7963 14.0884 12.9999 14.0884C13.6298 14.0884 14.2147 13.9147 14.6876 13.5858C15.1025 13.2975 15.4258 12.8947 15.6351 12.4105H18.56V18.5808H7.43611V12.4105Z" fill="white"/>
<rect width="26" height="26" rx="5" fill="#7A1CA9"/>
<path d="M19.9729 11.7859L19.9692 11.7711L17.8722 6.50264C17.7788 6.20512 17.5003 6 17.1845 6H8.68456C8.36684 6 8.08463 6.20882 7.99492 6.51003L6.0344 11.7249L6.0288 11.7379L6.02506 11.7526C6.00076 11.8432 5.99329 11.9356 6.00637 12.0261C6.0045 12.0557 6.00263 12.0853 6.00263 12.1148V18.8765C6.00313 19.1743 6.123 19.4598 6.336 19.6704C6.54899 19.881 6.83773 19.9995 7.13895 20H18.8609C19.487 20 19.9972 19.4955 19.9991 18.8765V12.1148C19.9991 12.0908 19.9991 12.0668 19.9972 12.0465C20.0047 11.9559 19.9972 11.8691 19.9729 11.7859ZM14.4446 10.9913L14.439 11.2814C14.4241 12.1111 13.8447 12.6692 12.9981 12.6692C12.585 12.6692 12.2299 12.538 11.9739 12.2885C11.7178 12.0391 11.5777 11.6917 11.5702 11.2814L11.5646 10.9913H7.71832L9.20412 7.41922H16.6649L18.1918 10.9913H14.4446ZM7.43611 12.4105H10.3759C10.8301 13.4657 11.7963 14.0884 12.9999 14.0884C13.6298 14.0884 14.2147 13.9147 14.6876 13.5858C15.1025 13.2975 15.4258 12.8947 15.6351 12.4105H18.56V18.5808H7.43611V12.4105Z" fill="white"/>
<rect width="26" height="26" rx="5" fill="#7A1CA9"/>
<path d="M19 13.7503C19 17.5003 16.375 19.3753 13.255 20.4628C13.0916 20.5182 12.9142 20.5156 12.7525 20.4553C9.625 19.3753 7 17.5003 7 13.7503V8.50034C7 8.30142 7.07902 8.11066 7.21967 7.97001C7.36032 7.82936 7.55109 7.75034 7.75 7.75034C9.25 7.75034 11.125 6.85034 12.43 5.71034C12.5889 5.57459 12.791 5.5 13 5.5C13.209 5.5 13.4111 5.57459 13.57 5.71034C14.8825 6.85784 16.75 7.75034 18.25 7.75034C18.4489 7.75034 18.6397 7.82936 18.7803 7.97001C18.921 8.11066 19 8.30142 19 8.50034V13.7503Z" stroke="white" stroke-width="1.5" stroke-linecap="round" stroke-linejoin="round"/>
<path d="M10.75 13L12.25 14.5L15.25 11.5" stroke="white" stroke-width="1.5" stroke-linecap="round" stroke-linejoin="round"/>
</svg>
