<svg width="26" height="26" viewBox="0 0 26 26" fill="none" xmlns="http://www.w3.org/2000/svg">
<rect width="26" height="26" rx="5" fill="#7A1CA9"/>
<path d="M13 20.5C17.1421 20.5 20.5 17.1421 20.5 13C20.5 8.85786 17.1421 5.5 13 5.5C8.85786 5.5 5.5 8.85786 5.5 13C5.5 17.1421 8.85786 20.5 13 20.5Z" stroke="white" stroke-width="1.5" stroke-linecap="round" stroke-linejoin="round"/>
<path d="M16 10H11.5C11.1022 10 10.7206 10.158 10.4393 10.4393C10.158 10.7206 10 11.1022 10 11.5C10 11.8978 10.158 12.2794 10.4393 12.5607C10.7206 12.842 11.1022 13 11.5 13H14.5C14.8978 13 15.2794 13.158 15.5607 13.4393C15.842 13.7206 16 14.1022 16 14.5C16 14.8978 15.842 15.2794 15.5607 15.5607C15.2794 15.842 14.8978 16 14.5 16H10" stroke="white" stroke-width="1.5" stroke-linecap="round" stroke-linejoin="round"/>
<path d="M13 17.5V8.5" stroke="white" stroke-width="1.5" stroke-linecap="round" stroke-linejoin="round"/>
</svg>
