<svg width="26" height="26" viewBox="0 0 26 26" fill="none" xmlns="http://www.w3.org/2000/svg">
<rect width="26" height="26" rx="5" fill="#7A1CA9"/>
<path d="M19.9729 11.7859L19.9692 11.7711L17.8722 6.50264C17.7788 6.20512 17.5003 6 17.1845 6H8.68456C8.36684 6 8.08463 6.20882 7.99492 6.51003L6.0344 11.7249L6.0288 11.7379L6.02506 11.7526C6.00076 11.8432 5.99329 11.9356 6.00637 12.0261C6.0045 12.0557 6.00263 12.0853 6.00263 12.1148V18.8765C6.00313 19.1743 6.123 19.4598 6.336 19.6704C6.54899 19.881 6.83773 19.9995 7.13895 20H18.8609C19.487 20 19.9972 19.4955 19.9991 18.8765V12.1148C19.9991 12.0908 19.9991 12.0668 19.9972 12.0465C20.0047 11.9559 19.9972 11.8691 19.9729 11.7859ZM14.4446 10.9913L14.439 11.2814C14.4241 12.1111 13.8447 12.6692 12.9981 12.6692C12.585 12.6692 12.2299 12.538 11.9739 12.2885C11.7178 12.0391 11.5777 11.6917 11.5702 11.2814L11.5646 10.9913H7.71832L9.20412 7.41922H16.6649L18.1918 10.9913H14.4446ZM7.43611 12.4105H10.3759C10.8301 13.4657 11.7963 14.0884 12.9999 14.0884C13.6298 14.0884 14.2147 13.9147 14.6876 13.5858C15.1025 13.2975 15.4258 12.8947 15.6351 12.4105H18.56V18.5808H7.43611V12.4105Z" fill="white"/>
<rect width="26" height="26" rx="5" fill="#7A1CA9"/>
<path d="M19.9729 11.7859L19.9692 11.7711L17.8722 6.50264C17.7788 6.20512 17.5003 6 17.1845 6H8.68456C8.36684 6 8.08463 6.20882 7.99492 6.51003L6.0344 11.7249L6.0288 11.7379L6.02506 11.7526C6.00076 11.8432 5.99329 11.9356 6.00637 12.0261C6.0045 12.0557 6.00263 12.0853 6.00263 12.1148V18.8765C6.00313 19.1743 6.123 19.4598 6.336 19.6704C6.54899 19.881 6.83773 19.9995 7.13895 20H18.8609C19.487 20 19.9972 19.4955 19.9991 18.8765V12.1148C19.9991 12.0908 19.9991 12.0668 19.9972 12.0465C20.0047 11.9559 19.9972 11.8691 19.9729 11.7859ZM14.4446 10.9913L14.439 11.2814C14.4241 12.1111 13.8447 12.6692 12.9981 12.6692C12.585 12.6692 12.2299 12.538 11.9739 12.2885C11.7178 12.0391 11.5777 11.6917 11.5702 11.2814L11.5646 10.9913H7.71832L9.20412 7.41922H16.6649L18.1918 10.9913H14.4446ZM7.43611 12.4105H10.3759C10.8301 13.4657 11.7963 14.0884 12.9999 14.0884C13.6298 14.0884 14.2147 13.9147 14.6876 13.5858C15.1025 13.2975 15.4258 12.8947 15.6351 12.4105H18.56V18.5808H7.43611V12.4105Z" fill="white"/>
<rect width="26" height="26" rx="5" fill="#7A1CA9"/>
<path d="M19.9729 11.7859L19.9692 11.7711L17.8722 6.50264C17.7788 6.20512 17.5003 6 17.1845 6H8.68456C8.36684 6 8.08463 6.20882 7.99492 6.51003L6.0344 11.7249L6.0288 11.7379L6.02506 11.7526C6.00076 11.8432 5.99329 11.9356 6.00637 12.0261C6.0045 12.0557 6.00263 12.0853 6.00263 12.1148V18.8765C6.00313 19.1743 6.123 19.4598 6.336 19.6704C6.54899 19.881 6.83773 19.9995 7.13895 20H18.8609C19.487 20 19.9972 19.4955 19.9991 18.8765V12.1148C19.9991 12.0908 19.9991 12.0668 19.9972 12.0465C20.0047 11.9559 19.9972 11.8691 19.9729 11.7859ZM14.4446 10.9913L14.439 11.2814C14.4241 12.1111 13.8447 12.6692 12.9981 12.6692C12.585 12.6692 12.2299 12.538 11.9739 12.2885C11.7178 12.0391 11.5777 11.6917 11.5702 11.2814L11.5646 10.9913H7.71832L9.20412 7.41922H16.6649L18.1918 10.9913H14.4446ZM7.43611 12.4105H10.3759C10.8301 13.4657 11.7963 14.0884 12.9999 14.0884C13.6298 14.0884 14.2147 13.9147 14.6876 13.5858C15.1025 13.2975 15.4258 12.8947 15.6351 12.4105H18.56V18.5808H7.43611V12.4105Z" fill="white"/>
<rect width="26" height="26" rx="5" fill="#7A1CA9"/>
<path d="M16.667 19.6663H18.0003C18.3539 19.6663 18.6931 19.5259 18.9431 19.2758C19.1932 19.0258 19.3337 18.6866 19.3337 18.333V10.333C19.3342 10.1218 19.2929 9.91248 19.2121 9.71728C19.1313 9.52207 19.0126 9.34479 18.863 9.19568L16.471 6.80368C16.3219 6.65403 16.1446 6.53538 15.9494 6.4546C15.7542 6.37382 15.5449 6.33249 15.3337 6.33301H10.0003C9.6467 6.33301 9.30756 6.47349 9.05752 6.72354C8.80747 6.97359 8.66699 7.31272 8.66699 7.66635V9.56635" stroke="white" stroke-width="1.5" stroke-linecap="round" stroke-linejoin="round"/>
<path d="M15.333 6.33301V9.66634C15.333 9.84315 15.4032 10.0127 15.5283 10.1377C15.6533 10.2628 15.8229 10.333 15.9997 10.333H19.333" stroke="white" stroke-width="1.5" stroke-linecap="round" stroke-linejoin="round"/>
<path d="M11.333 14.333V15.7997L12.3997 16.4663" stroke="white" stroke-width="1.5" stroke-linecap="round" stroke-linejoin="round"/>
<path d="M11.333 19.667C13.5421 19.667 15.333 17.8761 15.333 15.667C15.333 13.4579 13.5421 11.667 11.333 11.667C9.12387 11.667 7.33301 13.4579 7.33301 15.667C7.33301 17.8761 9.12387 19.667 11.333 19.667Z" stroke="white" stroke-width="1.5" stroke-linecap="round" stroke-linejoin="round"/>
</svg>
