<svg width="22" height="22" viewBox="0 0 22 22" fill="none" xmlns="http://www.w3.org/2000/svg">
<path d="M18.3333 5.5H3.66668C2.65415 5.5 1.83334 6.32081 1.83334 7.33333V14.6667C1.83334 15.6792 2.65415 16.5 3.66668 16.5H18.3333C19.3459 16.5 20.1667 15.6792 20.1667 14.6667V7.33333C20.1667 6.32081 19.3459 5.5 18.3333 5.5Z" stroke="black" stroke-width="1.5" stroke-linecap="round" stroke-linejoin="round"/>
<path d="M11 12.8332C12.0125 12.8332 12.8333 12.0124 12.8333 10.9998C12.8333 9.98732 12.0125 9.1665 11 9.1665C9.98747 9.1665 9.16666 9.98732 9.16666 10.9998C9.16666 12.0124 9.98747 12.8332 11 12.8332Z" stroke="black" stroke-width="1.5" stroke-linecap="round" stroke-linejoin="round"/>
<path d="M5.5 11H5.50917M16.5 11H16.5092" stroke="black" stroke-width="1.5" stroke-linecap="round" stroke-linejoin="round"/>
</svg>
