<svg width="16" height="16" viewBox="0 0 16 16" fill="none" xmlns="http://www.w3.org/2000/svg">
<g clip-path="url(#clip0_535_1681)">
<path d="M10.6667 10.6667V2H0.666656V10.6667H10.6667ZM10.6667 10.6667H15.3333V7.33333L13.3333 5.33333H10.6667L10.6667 10.6667ZM5.33332 12.3333C5.33332 13.2538 4.58713 14 3.66666 14C2.74618 14 1.99999 13.2538 1.99999 12.3333C1.99999 11.4129 2.74618 10.6667 3.66666 10.6667C4.58713 10.6667 5.33332 11.4129 5.33332 12.3333ZM14 12.3333C14 13.2538 13.2538 14 12.3333 14C11.4128 14 10.6667 13.2538 10.6667 12.3333C10.6667 11.4129 11.4128 10.6667 12.3333 10.6667C13.2538 10.6667 14 11.4129 14 12.3333Z" stroke="#1E1E1E" stroke-width="1.6" stroke-linecap="round" stroke-linejoin="round"/>
</g>
<defs>
<clipPath id="clip0_535_1681">
<rect width="16" height="16" fill="white"/>
</clipPath>
</defs>
</svg>
