<svg width="19" height="17" viewBox="0 0 19 17" fill="none" xmlns="http://www.w3.org/2000/svg">
<path d="M15.0417 4.95833V2.83333C15.0417 2.64547 14.9583 2.4653 14.8098 2.33247C14.6613 2.19963 14.46 2.125 14.25 2.125H3.95833C3.53841 2.125 3.13568 2.27426 2.83875 2.53993C2.54181 2.80561 2.375 3.16594 2.375 3.54167C2.375 3.91739 2.54181 4.27772 2.83875 4.5434C3.13568 4.80908 3.53841 4.95833 3.95833 4.95833H15.8333C16.0433 4.95833 16.2447 5.03296 16.3931 5.1658C16.5416 5.29864 16.625 5.4788 16.625 5.66667V8.5M16.625 8.5H14.25C13.8301 8.5 13.4273 8.64926 13.1304 8.91493C12.8335 9.18061 12.6667 9.54094 12.6667 9.91667C12.6667 10.2924 12.8335 10.6527 13.1304 10.9184C13.4273 11.1841 13.8301 11.3333 14.25 11.3333H16.625C16.835 11.3333 17.0363 11.2587 17.1848 11.1259C17.3333 10.993 17.4167 10.8129 17.4167 10.625V9.20833C17.4167 9.02047 17.3333 8.8403 17.1848 8.70747C17.0363 8.57463 16.835 8.5 16.625 8.5Z" stroke="black" stroke-width="1.5" stroke-linecap="round" stroke-linejoin="round"/>
<path d="M2.375 3.5415V13.4582C2.375 13.8339 2.54181 14.1942 2.83875 14.4599C3.13568 14.7256 3.53841 14.8748 3.95833 14.8748H15.8333C16.0433 14.8748 16.2447 14.8002 16.3931 14.6674C16.5416 14.5345 16.625 14.3544 16.625 14.1665V11.3332" stroke="black" stroke-width="1.5" stroke-linecap="round" stroke-linejoin="round"/>
</svg>
